<mxfile host="app.diagrams.net" agent="Mozilla/5.0 (Macintosh; Intel Mac OS X 10_15_7) AppleWebKit/537.36 (KHTML, like Gecko) Chrome/131.0.0.0 Safari/537.36" version="24.9.1">
  <diagram name="Page-1" id="cLoTebaXLB8Ytqw7zfb6">
    <mxGraphModel dx="1058" dy="572" grid="1" gridSize="10" guides="1" tooltips="1" connect="1" arrows="1" fold="1" page="1" pageScale="1" pageWidth="850" pageHeight="1100" math="0" shadow="0">
      <root>
        <mxCell id="0" />
        <mxCell id="1" parent="0" />
        <mxCell id="9sHecVh8QtGsuW8aZkRC-1" value="AWS Cloud" style="points=[[0,0],[0.25,0],[0.5,0],[0.75,0],[1,0],[1,0.25],[1,0.5],[1,0.75],[1,1],[0.75,1],[0.5,1],[0.25,1],[0,1],[0,0.75],[0,0.5],[0,0.25]];outlineConnect=0;gradientColor=none;html=1;whiteSpace=wrap;fontSize=12;fontStyle=0;container=1;pointerEvents=0;collapsible=0;recursiveResize=0;shape=mxgraph.aws4.group;grIcon=mxgraph.aws4.group_aws_cloud_alt;strokeColor=#232F3E;fillColor=none;verticalAlign=top;align=left;spacingLeft=30;fontColor=#232F3E;dashed=0;" parent="1" vertex="1">
          <mxGeometry x="20" y="20" width="860" height="460" as="geometry" />
        </mxCell>
        <mxCell id="9sHecVh8QtGsuW8aZkRC-2" value="us-east-1" style="points=[[0,0],[0.25,0],[0.5,0],[0.75,0],[1,0],[1,0.25],[1,0.5],[1,0.75],[1,1],[0.75,1],[0.5,1],[0.25,1],[0,1],[0,0.75],[0,0.5],[0,0.25]];outlineConnect=0;gradientColor=none;html=1;whiteSpace=wrap;fontSize=12;fontStyle=0;container=1;pointerEvents=0;collapsible=0;recursiveResize=0;shape=mxgraph.aws4.group;grIcon=mxgraph.aws4.group_region;strokeColor=#00A4A6;fillColor=none;verticalAlign=top;align=left;spacingLeft=30;fontColor=#147EBA;dashed=1;" parent="9sHecVh8QtGsuW8aZkRC-1" vertex="1">
          <mxGeometry x="10" y="30" width="460" height="240" as="geometry" />
        </mxCell>
        <mxCell id="9sHecVh8QtGsuW8aZkRC-8" value="VPC" style="points=[[0,0],[0.25,0],[0.5,0],[0.75,0],[1,0],[1,0.25],[1,0.5],[1,0.75],[1,1],[0.75,1],[0.5,1],[0.25,1],[0,1],[0,0.75],[0,0.5],[0,0.25]];outlineConnect=0;gradientColor=none;html=1;whiteSpace=wrap;fontSize=12;fontStyle=0;container=1;pointerEvents=0;collapsible=0;recursiveResize=0;shape=mxgraph.aws4.group;grIcon=mxgraph.aws4.group_vpc2;strokeColor=#8C4FFF;fillColor=none;verticalAlign=top;align=left;spacingLeft=30;fontColor=#AAB7B8;dashed=0;" parent="9sHecVh8QtGsuW8aZkRC-2" vertex="1">
          <mxGeometry x="20" y="30" width="380" height="200" as="geometry" />
        </mxCell>
        <mxCell id="9sHecVh8QtGsuW8aZkRC-9" value="Public subnet" style="points=[[0,0],[0.25,0],[0.5,0],[0.75,0],[1,0],[1,0.25],[1,0.5],[1,0.75],[1,1],[0.75,1],[0.5,1],[0.25,1],[0,1],[0,0.75],[0,0.5],[0,0.25]];outlineConnect=0;gradientColor=none;html=1;whiteSpace=wrap;fontSize=12;fontStyle=0;container=1;pointerEvents=0;collapsible=0;recursiveResize=0;shape=mxgraph.aws4.group;grIcon=mxgraph.aws4.group_security_group;grStroke=0;strokeColor=#7AA116;fillColor=#F2F6E8;verticalAlign=top;align=left;spacingLeft=30;fontColor=#248814;dashed=0;" parent="9sHecVh8QtGsuW8aZkRC-8" vertex="1">
          <mxGeometry x="220" y="36.5" width="130" height="130" as="geometry" />
        </mxCell>
        <mxCell id="8hndP29kRmZh06HsHL5m-2" value="" style="sketch=0;points=[[0,0,0],[0.25,0,0],[0.5,0,0],[0.75,0,0],[1,0,0],[0,1,0],[0.25,1,0],[0.5,1,0],[0.75,1,0],[1,1,0],[0,0.25,0],[0,0.5,0],[0,0.75,0],[1,0.25,0],[1,0.5,0],[1,0.75,0]];outlineConnect=0;fontColor=#232F3E;fillColor=#ED7100;strokeColor=#ffffff;dashed=0;verticalLabelPosition=bottom;verticalAlign=top;align=center;html=1;fontSize=12;fontStyle=0;aspect=fixed;shape=mxgraph.aws4.resourceIcon;resIcon=mxgraph.aws4.eks;" parent="9sHecVh8QtGsuW8aZkRC-9" vertex="1">
          <mxGeometry x="32.5" y="32.5" width="65" height="65" as="geometry" />
        </mxCell>
        <mxCell id="8hndP29kRmZh06HsHL5m-4" value="Elastic Kubernetes Service" style="text;html=1;align=center;verticalAlign=middle;whiteSpace=wrap;rounded=0;fontStyle=1" parent="9sHecVh8QtGsuW8aZkRC-9" vertex="1">
          <mxGeometry x="5" y="97.5" width="120" height="30" as="geometry" />
        </mxCell>
        <mxCell id="9sHecVh8QtGsuW8aZkRC-35" value="Private subnet" style="points=[[0,0],[0.25,0],[0.5,0],[0.75,0],[1,0],[1,0.25],[1,0.5],[1,0.75],[1,1],[0.75,1],[0.5,1],[0.25,1],[0,1],[0,0.75],[0,0.5],[0,0.25]];outlineConnect=0;gradientColor=none;html=1;whiteSpace=wrap;fontSize=12;fontStyle=0;container=1;pointerEvents=0;collapsible=0;recursiveResize=0;shape=mxgraph.aws4.group;grIcon=mxgraph.aws4.group_security_group;grStroke=0;strokeColor=#00A4A6;fillColor=#E6F6F7;verticalAlign=top;align=left;spacingLeft=30;fontColor=#147EBA;dashed=0;" parent="9sHecVh8QtGsuW8aZkRC-8" vertex="1">
          <mxGeometry x="30" y="40" width="130" height="130" as="geometry" />
        </mxCell>
        <mxCell id="9sHecVh8QtGsuW8aZkRC-37" value="" style="sketch=0;points=[[0,0,0],[0.25,0,0],[0.5,0,0],[0.75,0,0],[1,0,0],[0,1,0],[0.25,1,0],[0.5,1,0],[0.75,1,0],[1,1,0],[0,0.25,0],[0,0.5,0],[0,0.75,0],[1,0.25,0],[1,0.5,0],[1,0.75,0]];outlineConnect=0;fontColor=#232F3E;fillColor=#C925D1;strokeColor=#ffffff;dashed=0;verticalLabelPosition=bottom;verticalAlign=top;align=center;html=1;fontSize=12;fontStyle=0;aspect=fixed;shape=mxgraph.aws4.resourceIcon;resIcon=mxgraph.aws4.aurora;" parent="9sHecVh8QtGsuW8aZkRC-35" vertex="1">
          <mxGeometry x="36.5" y="33" width="57" height="57" as="geometry" />
        </mxCell>
        <mxCell id="9sHecVh8QtGsuW8aZkRC-38" value="Aurora Serverless DB" style="text;html=1;align=center;verticalAlign=middle;whiteSpace=wrap;rounded=0;fontStyle=1" parent="9sHecVh8QtGsuW8aZkRC-35" vertex="1">
          <mxGeometry x="15.75" y="90" width="98.5" height="30" as="geometry" />
        </mxCell>
        <mxCell id="9sHecVh8QtGsuW8aZkRC-39" style="edgeStyle=orthogonalEdgeStyle;rounded=0;orthogonalLoop=1;jettySize=auto;html=1;exitX=1;exitY=0.5;exitDx=0;exitDy=0;exitPerimeter=0;endArrow=block;elbow=vertical;startArrow=block;startFill=1;endFill=1;strokeColor=#545B64;" parent="9sHecVh8QtGsuW8aZkRC-8" source="9sHecVh8QtGsuW8aZkRC-37" target="8hndP29kRmZh06HsHL5m-2" edge="1">
          <mxGeometry relative="1" as="geometry">
            <mxPoint x="240" y="102" as="targetPoint" />
          </mxGeometry>
        </mxCell>
        <mxCell id="9sHecVh8QtGsuW8aZkRC-12" value="" style="sketch=0;outlineConnect=0;fontColor=#232F3E;gradientColor=none;fillColor=#8C4FFF;strokeColor=none;dashed=0;verticalLabelPosition=bottom;verticalAlign=top;align=center;html=1;fontSize=12;fontStyle=0;aspect=fixed;pointerEvents=1;shape=mxgraph.aws4.internet_gateway;" parent="9sHecVh8QtGsuW8aZkRC-8" vertex="1">
          <mxGeometry x="350" y="73" width="57" height="57" as="geometry" />
        </mxCell>
        <mxCell id="9sHecVh8QtGsuW8aZkRC-23" value="" style="edgeStyle=orthogonalEdgeStyle;html=1;endArrow=block;elbow=vertical;startArrow=block;startFill=1;endFill=1;strokeColor=#545B64;rounded=0;exitX=1;exitY=0.5;exitDx=0;exitDy=0;exitPerimeter=0;" parent="9sHecVh8QtGsuW8aZkRC-8" source="8hndP29kRmZh06HsHL5m-2" target="9sHecVh8QtGsuW8aZkRC-12" edge="1">
          <mxGeometry width="100" relative="1" as="geometry">
            <mxPoint x="320" y="102" as="sourcePoint" />
            <mxPoint x="235" y="110" as="targetPoint" />
          </mxGeometry>
        </mxCell>
        <mxCell id="HaM_An7yO-ACqNu1QWbp-11" style="edgeStyle=orthogonalEdgeStyle;rounded=0;orthogonalLoop=1;jettySize=auto;html=1;exitX=0.5;exitY=1;exitDx=0;exitDy=0;exitPerimeter=0;endArrow=block;elbow=vertical;startArrow=block;startFill=1;endFill=1;strokeColor=#545B64;" parent="9sHecVh8QtGsuW8aZkRC-1" source="7wSFpp9sJQzXC4tISoXY-12" target="9sHecVh8QtGsuW8aZkRC-16" edge="1">
          <mxGeometry relative="1" as="geometry" />
        </mxCell>
        <mxCell id="9sHecVh8QtGsuW8aZkRC-16" value="" style="sketch=0;outlineConnect=0;fontColor=#232F3E;gradientColor=none;fillColor=#7AA116;strokeColor=none;dashed=0;verticalLabelPosition=bottom;verticalAlign=top;align=center;html=1;fontSize=12;fontStyle=0;aspect=fixed;pointerEvents=1;shape=mxgraph.aws4.bucket_with_objects;" parent="9sHecVh8QtGsuW8aZkRC-1" vertex="1">
          <mxGeometry x="674.89" y="330.75" width="57.69" height="60" as="geometry" />
        </mxCell>
        <mxCell id="9sHecVh8QtGsuW8aZkRC-31" value="subdc.co" style="text;html=1;align=center;verticalAlign=middle;whiteSpace=wrap;rounded=0;fontStyle=1" parent="9sHecVh8QtGsuW8aZkRC-1" vertex="1">
          <mxGeometry x="573.27" y="393.25" width="51.15" height="16.5" as="geometry" />
        </mxCell>
        <mxCell id="pGSdeuUpQNaxIjK8rSRS-2" value="subdc-listing-images" style="text;html=1;align=center;verticalAlign=middle;whiteSpace=wrap;rounded=0;fontStyle=1" parent="9sHecVh8QtGsuW8aZkRC-1" vertex="1">
          <mxGeometry x="651.27" y="390.75" width="131.15" height="21.5" as="geometry" />
        </mxCell>
        <mxCell id="pGSdeuUpQNaxIjK8rSRS-1" value="" style="sketch=0;outlineConnect=0;fontColor=#232F3E;gradientColor=none;fillColor=#7AA116;strokeColor=none;dashed=0;verticalLabelPosition=bottom;verticalAlign=top;align=center;html=1;fontSize=12;fontStyle=0;aspect=fixed;pointerEvents=1;shape=mxgraph.aws4.bucket_with_objects;" parent="9sHecVh8QtGsuW8aZkRC-1" vertex="1">
          <mxGeometry x="570" y="330.75" width="57.69" height="60" as="geometry" />
        </mxCell>
        <mxCell id="7wSFpp9sJQzXC4tISoXY-8" value="" style="sketch=0;points=[[0,0,0],[0.25,0,0],[0.5,0,0],[0.75,0,0],[1,0,0],[0,1,0],[0.25,1,0],[0.5,1,0],[0.75,1,0],[1,1,0],[0,0.25,0],[0,0.5,0],[0,0.75,0],[1,0.25,0],[1,0.5,0],[1,0.75,0]];points=[[0,0,0],[0.25,0,0],[0.5,0,0],[0.75,0,0],[1,0,0],[0,1,0],[0.25,1,0],[0.5,1,0],[0.75,1,0],[1,1,0],[0,0.25,0],[0,0.5,0],[0,0.75,0],[1,0.25,0],[1,0.5,0],[1,0.75,0]];outlineConnect=0;fontColor=#232F3E;fillColor=#E7157B;strokeColor=#ffffff;dashed=0;verticalLabelPosition=bottom;verticalAlign=top;align=center;html=1;fontSize=12;fontStyle=0;aspect=fixed;shape=mxgraph.aws4.resourceIcon;resIcon=mxgraph.aws4.cloudformation;" parent="9sHecVh8QtGsuW8aZkRC-1" vertex="1">
          <mxGeometry x="30" y="365" width="65" height="65" as="geometry" />
        </mxCell>
        <mxCell id="7wSFpp9sJQzXC4tISoXY-22" style="edgeStyle=orthogonalEdgeStyle;rounded=0;orthogonalLoop=1;jettySize=auto;html=1;endArrow=block;elbow=vertical;startArrow=block;startFill=1;endFill=1;strokeColor=#545B64;" parent="9sHecVh8QtGsuW8aZkRC-1" source="7wSFpp9sJQzXC4tISoXY-12" target="9sHecVh8QtGsuW8aZkRC-12" edge="1">
          <mxGeometry relative="1" as="geometry" />
        </mxCell>
        <mxCell id="7wSFpp9sJQzXC4tISoXY-12" value="" style="sketch=0;points=[[0,0,0],[0.25,0,0],[0.5,0,0],[0.75,0,0],[1,0,0],[0,1,0],[0.25,1,0],[0.5,1,0],[0.75,1,0],[1,1,0],[0,0.25,0],[0,0.5,0],[0,0.75,0],[1,0.25,0],[1,0.5,0],[1,0.75,0]];outlineConnect=0;fontColor=#232F3E;fillColor=#7AA116;strokeColor=#ffffff;dashed=0;verticalLabelPosition=bottom;verticalAlign=top;align=center;html=1;fontSize=12;fontStyle=0;aspect=fixed;shape=mxgraph.aws4.resourceIcon;resIcon=mxgraph.aws4.s3;" parent="9sHecVh8QtGsuW8aZkRC-1" vertex="1">
          <mxGeometry x="535" y="129" width="65" height="65" as="geometry" />
        </mxCell>
        <mxCell id="7wSFpp9sJQzXC4tISoXY-17" value="" style="sketch=0;outlineConnect=0;fontColor=#232F3E;gradientColor=none;fillColor=#8C4FFF;strokeColor=none;dashed=0;verticalLabelPosition=bottom;verticalAlign=top;align=center;html=1;fontSize=12;fontStyle=0;aspect=fixed;pointerEvents=1;shape=mxgraph.aws4.hosted_zone;" parent="9sHecVh8QtGsuW8aZkRC-1" vertex="1">
          <mxGeometry x="745.58" y="30" width="65" height="64.17" as="geometry" />
        </mxCell>
        <mxCell id="7wSFpp9sJQzXC4tISoXY-18" value="" style="sketch=0;points=[[0,0,0],[0.25,0,0],[0.5,0,0],[0.75,0,0],[1,0,0],[0,1,0],[0.25,1,0],[0.5,1,0],[0.75,1,0],[1,1,0],[0,0.25,0],[0,0.5,0],[0,0.75,0],[1,0.25,0],[1,0.5,0],[1,0.75,0]];outlineConnect=0;fontColor=#232F3E;fillColor=#8C4FFF;strokeColor=#ffffff;dashed=0;verticalLabelPosition=bottom;verticalAlign=top;align=center;html=1;fontSize=12;fontStyle=0;aspect=fixed;shape=mxgraph.aws4.resourceIcon;resIcon=mxgraph.aws4.route_53;" parent="9sHecVh8QtGsuW8aZkRC-1" vertex="1">
          <mxGeometry x="130" y="365" width="65" height="65" as="geometry" />
        </mxCell>
        <mxCell id="7wSFpp9sJQzXC4tISoXY-21" value="Route53 Hosted Zone" style="text;html=1;align=center;verticalAlign=middle;whiteSpace=wrap;rounded=0;fontStyle=1" parent="9sHecVh8QtGsuW8aZkRC-1" vertex="1">
          <mxGeometry x="732.58" y="95" width="91" height="30" as="geometry" />
        </mxCell>
        <mxCell id="7wSFpp9sJQzXC4tISoXY-42" style="edgeStyle=orthogonalEdgeStyle;rounded=0;orthogonalLoop=1;jettySize=auto;html=1;endArrow=block;elbow=vertical;startArrow=none;endFill=1;strokeColor=#545B64;" parent="9sHecVh8QtGsuW8aZkRC-1" source="7wSFpp9sJQzXC4tISoXY-23" target="pGSdeuUpQNaxIjK8rSRS-1" edge="1">
          <mxGeometry relative="1" as="geometry" />
        </mxCell>
        <mxCell id="HaM_An7yO-ACqNu1QWbp-9" style="edgeStyle=orthogonalEdgeStyle;rounded=0;orthogonalLoop=1;jettySize=auto;html=1;entryX=0.5;entryY=1;entryDx=0;entryDy=0;exitX=0.5;exitY=0;exitDx=0;exitDy=0;exitPerimeter=0;endArrow=block;elbow=vertical;startArrow=none;endFill=1;strokeColor=#545B64;" parent="9sHecVh8QtGsuW8aZkRC-1" source="7wSFpp9sJQzXC4tISoXY-23" edge="1">
          <mxGeometry relative="1" as="geometry">
            <mxPoint x="315.5" y="231" as="targetPoint" />
          </mxGeometry>
        </mxCell>
        <mxCell id="7wSFpp9sJQzXC4tISoXY-23" value="" style="sketch=0;points=[[0,0,0],[0.25,0,0],[0.5,0,0],[0.75,0,0],[1,0,0],[0,1,0],[0.25,1,0],[0.5,1,0],[0.75,1,0],[1,1,0],[0,0.25,0],[0,0.5,0],[0,0.75,0],[1,0.25,0],[1,0.5,0],[1,0.75,0]];outlineConnect=0;fontColor=#232F3E;fillColor=#C925D1;strokeColor=#ffffff;dashed=0;verticalLabelPosition=bottom;verticalAlign=top;align=center;html=1;fontSize=12;fontStyle=0;aspect=fixed;shape=mxgraph.aws4.resourceIcon;resIcon=mxgraph.aws4.codebuild;" parent="9sHecVh8QtGsuW8aZkRC-1" vertex="1">
          <mxGeometry x="430" y="365" width="65" height="65" as="geometry" />
        </mxCell>
        <mxCell id="7wSFpp9sJQzXC4tISoXY-26" value="CloudFormation" style="text;html=1;align=center;verticalAlign=middle;whiteSpace=wrap;rounded=0;fontStyle=1" parent="9sHecVh8QtGsuW8aZkRC-1" vertex="1">
          <mxGeometry x="12.5" y="430" width="100" height="16.5" as="geometry" />
        </mxCell>
        <mxCell id="7wSFpp9sJQzXC4tISoXY-25" value="Route53" style="text;html=1;align=center;verticalAlign=middle;whiteSpace=wrap;rounded=0;fontStyle=1" parent="9sHecVh8QtGsuW8aZkRC-1" vertex="1">
          <mxGeometry x="132.5" y="430" width="60" height="16.5" as="geometry" />
        </mxCell>
        <mxCell id="7wSFpp9sJQzXC4tISoXY-24" value="CodeBuild" style="text;html=1;align=center;verticalAlign=middle;whiteSpace=wrap;rounded=0;fontStyle=1" parent="9sHecVh8QtGsuW8aZkRC-1" vertex="1">
          <mxGeometry x="432.5" y="430" width="60" height="17.75" as="geometry" />
        </mxCell>
        <mxCell id="7wSFpp9sJQzXC4tISoXY-28" value="Secrets Manager" style="text;html=1;align=center;verticalAlign=middle;whiteSpace=wrap;rounded=0;fontStyle=1" parent="9sHecVh8QtGsuW8aZkRC-1" vertex="1">
          <mxGeometry x="212.5" y="430" width="100" height="17.75" as="geometry" />
        </mxCell>
        <mxCell id="7wSFpp9sJQzXC4tISoXY-27" value="" style="sketch=0;points=[[0,0,0],[0.25,0,0],[0.5,0,0],[0.75,0,0],[1,0,0],[0,1,0],[0.25,1,0],[0.5,1,0],[0.75,1,0],[1,1,0],[0,0.25,0],[0,0.5,0],[0,0.75,0],[1,0.25,0],[1,0.5,0],[1,0.75,0]];outlineConnect=0;fontColor=#232F3E;fillColor=#DD344C;strokeColor=#ffffff;dashed=0;verticalLabelPosition=bottom;verticalAlign=top;align=center;html=1;fontSize=12;fontStyle=0;aspect=fixed;shape=mxgraph.aws4.resourceIcon;resIcon=mxgraph.aws4.secrets_manager;" parent="9sHecVh8QtGsuW8aZkRC-1" vertex="1">
          <mxGeometry x="230" y="365" width="65" height="65" as="geometry" />
        </mxCell>
        <mxCell id="HaM_An7yO-ACqNu1QWbp-6" style="edgeStyle=orthogonalEdgeStyle;rounded=0;orthogonalLoop=1;jettySize=auto;html=1;endArrow=block;elbow=vertical;startArrow=block;startFill=1;endFill=1;strokeColor=#545B64;" parent="9sHecVh8QtGsuW8aZkRC-1" source="HaM_An7yO-ACqNu1QWbp-2" target="7wSFpp9sJQzXC4tISoXY-17" edge="1">
          <mxGeometry relative="1" as="geometry" />
        </mxCell>
        <mxCell id="HaM_An7yO-ACqNu1QWbp-2" value="" style="sketch=0;points=[[0,0,0],[0.25,0,0],[0.5,0,0],[0.75,0,0],[1,0,0],[0,1,0],[0.25,1,0],[0.5,1,0],[0.75,1,0],[1,1,0],[0,0.25,0],[0,0.5,0],[0,0.75,0],[1,0.25,0],[1,0.5,0],[1,0.75,0]];outlineConnect=0;fontColor=#232F3E;fillColor=#8C4FFF;strokeColor=#ffffff;dashed=0;verticalLabelPosition=bottom;verticalAlign=top;align=center;html=1;fontSize=12;fontStyle=0;aspect=fixed;shape=mxgraph.aws4.resourceIcon;resIcon=mxgraph.aws4.cloudfront;" parent="9sHecVh8QtGsuW8aZkRC-1" vertex="1">
          <mxGeometry x="600" y="29.17" width="65" height="65" as="geometry" />
        </mxCell>
        <mxCell id="HaM_An7yO-ACqNu1QWbp-5" style="edgeStyle=orthogonalEdgeStyle;rounded=0;orthogonalLoop=1;jettySize=auto;html=1;entryX=0.5;entryY=0;entryDx=0;entryDy=0;entryPerimeter=0;endArrow=block;elbow=vertical;startArrow=block;startFill=1;endFill=1;strokeColor=#545B64;exitX=0;exitY=0.5;exitDx=0;exitDy=0;exitPerimeter=0;" parent="9sHecVh8QtGsuW8aZkRC-1" source="HaM_An7yO-ACqNu1QWbp-2" target="7wSFpp9sJQzXC4tISoXY-12" edge="1">
          <mxGeometry relative="1" as="geometry" />
        </mxCell>
        <mxCell id="HaM_An7yO-ACqNu1QWbp-7" value="CloudFront" style="text;html=1;align=center;verticalAlign=middle;whiteSpace=wrap;rounded=0;fontStyle=1" parent="9sHecVh8QtGsuW8aZkRC-1" vertex="1">
          <mxGeometry x="597.5000000000001" y="95" width="70" height="20" as="geometry" />
        </mxCell>
        <mxCell id="HaM_An7yO-ACqNu1QWbp-10" style="edgeStyle=orthogonalEdgeStyle;rounded=0;orthogonalLoop=1;jettySize=auto;html=1;entryX=0.5;entryY=1;entryDx=0;entryDy=0;entryPerimeter=0;endArrow=block;elbow=vertical;startArrow=block;startFill=1;endFill=1;strokeColor=#545B64;" parent="9sHecVh8QtGsuW8aZkRC-1" source="pGSdeuUpQNaxIjK8rSRS-1" target="7wSFpp9sJQzXC4tISoXY-12" edge="1">
          <mxGeometry relative="1" as="geometry" />
        </mxCell>
        <mxCell id="HaM_An7yO-ACqNu1QWbp-13" value="" style="sketch=0;points=[[0,0,0],[0.25,0,0],[0.5,0,0],[0.75,0,0],[1,0,0],[0,1,0],[0.25,1,0],[0.5,1,0],[0.75,1,0],[1,1,0],[0,0.25,0],[0,0.5,0],[0,0.75,0],[1,0.25,0],[1,0.5,0],[1,0.75,0]];outlineConnect=0;fontColor=#232F3E;fillColor=#DD344C;strokeColor=#ffffff;dashed=0;verticalLabelPosition=bottom;verticalAlign=top;align=center;html=1;fontSize=12;fontStyle=0;aspect=fixed;shape=mxgraph.aws4.resourceIcon;resIcon=mxgraph.aws4.certificate_manager_3;" parent="9sHecVh8QtGsuW8aZkRC-1" vertex="1">
          <mxGeometry x="30" y="280" width="65" height="65" as="geometry" />
        </mxCell>
        <mxCell id="HaM_An7yO-ACqNu1QWbp-14" value="ACM" style="text;html=1;align=center;verticalAlign=middle;whiteSpace=wrap;rounded=0;fontStyle=1" parent="9sHecVh8QtGsuW8aZkRC-1" vertex="1">
          <mxGeometry x="42.5" y="345" width="40" height="17.75" as="geometry" />
        </mxCell>
        <mxCell id="zqciDCgVZ483d6t_hfOH-8" value="" style="sketch=0;points=[[0,0,0],[0.25,0,0],[0.5,0,0],[0.75,0,0],[1,0,0],[0,1,0],[0.25,1,0],[0.5,1,0],[0.75,1,0],[1,1,0],[0,0.25,0],[0,0.5,0],[0,0.75,0],[1,0.25,0],[1,0.5,0],[1,0.75,0]];outlineConnect=0;fontColor=#232F3E;fillColor=#ED7100;strokeColor=#ffffff;dashed=0;verticalLabelPosition=bottom;verticalAlign=top;align=center;html=1;fontSize=12;fontStyle=0;aspect=fixed;shape=mxgraph.aws4.resourceIcon;resIcon=mxgraph.aws4.ecr;" parent="9sHecVh8QtGsuW8aZkRC-1" vertex="1">
          <mxGeometry x="330" y="365" width="65" height="65" as="geometry" />
        </mxCell>
        <mxCell id="zqciDCgVZ483d6t_hfOH-10" value="" style="edgeStyle=orthogonalEdgeStyle;html=1;endArrow=block;elbow=vertical;startArrow=block;startFill=1;endFill=1;strokeColor=#545B64;rounded=0;" parent="9sHecVh8QtGsuW8aZkRC-1" source="zqciDCgVZ483d6t_hfOH-8" target="7wSFpp9sJQzXC4tISoXY-23" edge="1">
          <mxGeometry width="100" relative="1" as="geometry">
            <mxPoint x="410" y="410" as="sourcePoint" />
            <mxPoint x="449" y="410" as="targetPoint" />
          </mxGeometry>
        </mxCell>
        <mxCell id="zqciDCgVZ483d6t_hfOH-9" value="&lt;b&gt;ECR&lt;/b&gt;" style="text;html=1;align=center;verticalAlign=middle;resizable=0;points=[];autosize=1;strokeColor=none;fillColor=none;" parent="9sHecVh8QtGsuW8aZkRC-1" vertex="1">
          <mxGeometry x="337.5" y="423.25" width="50" height="30" as="geometry" />
        </mxCell>
        <mxCell id="7wSFpp9sJQzXC4tISoXY-30" style="edgeStyle=orthogonalEdgeStyle;rounded=0;orthogonalLoop=1;jettySize=auto;html=1;endArrow=block;elbow=vertical;startArrow=block;startFill=1;endFill=1;strokeColor=#545B64;" parent="1" source="9sHecVh8QtGsuW8aZkRC-27" target="7wSFpp9sJQzXC4tISoXY-17" edge="1">
          <mxGeometry relative="1" as="geometry" />
        </mxCell>
        <UserObject label="&lt;b&gt;https://subdc.co&lt;/b&gt;" link="https://subdc.co" id="9sHecVh8QtGsuW8aZkRC-27">
          <mxCell style="text;whiteSpace=wrap;html=1;" parent="1" vertex="1">
            <mxGeometry x="910" y="67.09" width="95" height="30" as="geometry" />
          </mxCell>
        </UserObject>
        <mxCell id="9sHecVh8QtGsuW8aZkRC-32" style="edgeStyle=orthogonalEdgeStyle;rounded=0;orthogonalLoop=1;jettySize=auto;html=1;endArrow=block;elbow=vertical;startArrow=block;startFill=1;endFill=1;strokeColor=#545B64;" parent="1" source="9sHecVh8QtGsuW8aZkRC-27" target="M8VhZg36b8eC-4sq4X0w-50" edge="1">
          <mxGeometry relative="1" as="geometry">
            <mxPoint x="909.44" y="80" as="sourcePoint" />
            <mxPoint x="957.5" y="190" as="targetPoint" />
          </mxGeometry>
        </mxCell>
        <mxCell id="7wSFpp9sJQzXC4tISoXY-41" style="edgeStyle=orthogonalEdgeStyle;rounded=0;orthogonalLoop=1;jettySize=auto;html=1;endArrow=block;elbow=vertical;startArrow=none;endFill=1;strokeColor=#545B64;" parent="1" source="7wSFpp9sJQzXC4tISoXY-31" target="7wSFpp9sJQzXC4tISoXY-24" edge="1">
          <mxGeometry relative="1" as="geometry" />
        </mxCell>
        <mxCell id="7wSFpp9sJQzXC4tISoXY-31" value="" style="dashed=0;outlineConnect=0;html=1;align=center;labelPosition=center;verticalLabelPosition=bottom;verticalAlign=top;shape=mxgraph.weblogos.github" parent="1" vertex="1">
          <mxGeometry x="452.5" y="500" width="65" height="65" as="geometry" />
        </mxCell>
        <mxCell id="7wSFpp9sJQzXC4tISoXY-32" value="GitHub Webhook" style="text;html=1;align=center;verticalAlign=middle;whiteSpace=wrap;rounded=0;fontStyle=1" parent="1" vertex="1">
          <mxGeometry x="430.96999999999997" y="570" width="103.07" height="20" as="geometry" />
        </mxCell>
        <mxCell id="M8VhZg36b8eC-4sq4X0w-1" value="AWS Cloud" style="points=[[0,0],[0.25,0],[0.5,0],[0.75,0],[1,0],[1,0.25],[1,0.5],[1,0.75],[1,1],[0.75,1],[0.5,1],[0.25,1],[0,1],[0,0.75],[0,0.5],[0,0.25]];outlineConnect=0;gradientColor=none;html=1;whiteSpace=wrap;fontSize=12;fontStyle=0;container=1;pointerEvents=0;collapsible=0;recursiveResize=0;shape=mxgraph.aws4.group;grIcon=mxgraph.aws4.group_aws_cloud_alt;strokeColor=#232F3E;fillColor=none;verticalAlign=top;align=left;spacingLeft=30;fontColor=#232F3E;dashed=0;" parent="1" vertex="1">
          <mxGeometry x="20" y="818.5" width="620" height="460" as="geometry" />
        </mxCell>
        <mxCell id="M8VhZg36b8eC-4sq4X0w-2" value="us-east-1" style="points=[[0,0],[0.25,0],[0.5,0],[0.75,0],[1,0],[1,0.25],[1,0.5],[1,0.75],[1,1],[0.75,1],[0.5,1],[0.25,1],[0,1],[0,0.75],[0,0.5],[0,0.25]];outlineConnect=0;gradientColor=none;html=1;whiteSpace=wrap;fontSize=12;fontStyle=0;container=1;pointerEvents=0;collapsible=0;recursiveResize=0;shape=mxgraph.aws4.group;grIcon=mxgraph.aws4.group_region;strokeColor=#00A4A6;fillColor=none;verticalAlign=top;align=left;spacingLeft=30;fontColor=#147EBA;dashed=1;" parent="M8VhZg36b8eC-4sq4X0w-1" vertex="1">
          <mxGeometry x="10" y="190" width="290" height="250" as="geometry" />
        </mxCell>
        <mxCell id="M8VhZg36b8eC-4sq4X0w-3" value="VPC" style="points=[[0,0],[0.25,0],[0.5,0],[0.75,0],[1,0],[1,0.25],[1,0.5],[1,0.75],[1,1],[0.75,1],[0.5,1],[0.25,1],[0,1],[0,0.75],[0,0.5],[0,0.25]];outlineConnect=0;gradientColor=none;html=1;whiteSpace=wrap;fontSize=12;fontStyle=0;container=1;pointerEvents=0;collapsible=0;recursiveResize=0;shape=mxgraph.aws4.group;grIcon=mxgraph.aws4.group_vpc2;strokeColor=#8C4FFF;fillColor=none;verticalAlign=top;align=left;spacingLeft=30;fontColor=#AAB7B8;dashed=0;" parent="M8VhZg36b8eC-4sq4X0w-2" vertex="1">
          <mxGeometry x="20" y="40" width="220" height="200" as="geometry" />
        </mxCell>
        <mxCell id="M8VhZg36b8eC-4sq4X0w-4" value="Public subnet" style="points=[[0,0],[0.25,0],[0.5,0],[0.75,0],[1,0],[1,0.25],[1,0.5],[1,0.75],[1,1],[0.75,1],[0.5,1],[0.25,1],[0,1],[0,0.75],[0,0.5],[0,0.25]];outlineConnect=0;gradientColor=none;html=1;whiteSpace=wrap;fontSize=12;fontStyle=0;container=1;pointerEvents=0;collapsible=0;recursiveResize=0;shape=mxgraph.aws4.group;grIcon=mxgraph.aws4.group_security_group;grStroke=0;strokeColor=#7AA116;fillColor=#F2F6E8;verticalAlign=top;align=left;spacingLeft=30;fontColor=#248814;dashed=0;" parent="M8VhZg36b8eC-4sq4X0w-3" vertex="1">
          <mxGeometry x="35" y="36.5" width="130" height="130" as="geometry" />
        </mxCell>
        <mxCell id="M8VhZg36b8eC-4sq4X0w-7" value="Elastic Kubernetes Service" style="text;html=1;align=center;verticalAlign=middle;whiteSpace=wrap;rounded=0;fontStyle=1" parent="M8VhZg36b8eC-4sq4X0w-4" vertex="1">
          <mxGeometry x="7.5" y="104.5" width="115" height="25.5" as="geometry" />
        </mxCell>
        <mxCell id="zqciDCgVZ483d6t_hfOH-1" value="" style="sketch=0;points=[[0,0,0],[0.25,0,0],[0.5,0,0],[0.75,0,0],[1,0,0],[0,1,0],[0.25,1,0],[0.5,1,0],[0.75,1,0],[1,1,0],[0,0.25,0],[0,0.5,0],[0,0.75,0],[1,0.25,0],[1,0.5,0],[1,0.75,0]];outlineConnect=0;fontColor=#232F3E;fillColor=#ED7100;strokeColor=#ffffff;dashed=0;verticalLabelPosition=bottom;verticalAlign=top;align=center;html=1;fontSize=12;fontStyle=0;aspect=fixed;shape=mxgraph.aws4.resourceIcon;resIcon=mxgraph.aws4.eks;" parent="M8VhZg36b8eC-4sq4X0w-4" vertex="1">
          <mxGeometry x="32.5" y="36.5" width="65" height="65" as="geometry" />
        </mxCell>
        <mxCell id="M8VhZg36b8eC-4sq4X0w-12" value="" style="sketch=0;outlineConnect=0;fontColor=#232F3E;gradientColor=none;fillColor=#8C4FFF;strokeColor=none;dashed=0;verticalLabelPosition=bottom;verticalAlign=top;align=center;html=1;fontSize=12;fontStyle=0;aspect=fixed;pointerEvents=1;shape=mxgraph.aws4.internet_gateway;" parent="M8VhZg36b8eC-4sq4X0w-3" vertex="1">
          <mxGeometry x="192.5" y="73" width="57" height="57" as="geometry" />
        </mxCell>
        <mxCell id="M8VhZg36b8eC-4sq4X0w-13" value="" style="edgeStyle=orthogonalEdgeStyle;html=1;endArrow=block;elbow=vertical;startArrow=block;startFill=1;endFill=1;strokeColor=#545B64;rounded=0;exitX=1;exitY=0.5;exitDx=0;exitDy=0;" parent="M8VhZg36b8eC-4sq4X0w-3" target="M8VhZg36b8eC-4sq4X0w-12" edge="1">
          <mxGeometry width="100" relative="1" as="geometry">
            <mxPoint x="130.5" y="101.5" as="sourcePoint" />
            <mxPoint x="235" y="110" as="targetPoint" />
          </mxGeometry>
        </mxCell>
        <mxCell id="M8VhZg36b8eC-4sq4X0w-15" value="" style="sketch=0;outlineConnect=0;fontColor=#232F3E;gradientColor=none;fillColor=#7AA116;strokeColor=none;dashed=0;verticalLabelPosition=bottom;verticalAlign=top;align=center;html=1;fontSize=12;fontStyle=0;aspect=fixed;pointerEvents=1;shape=mxgraph.aws4.bucket_with_objects;" parent="M8VhZg36b8eC-4sq4X0w-1" vertex="1">
          <mxGeometry x="433.65999999999997" y="170" width="57.69" height="60" as="geometry" />
        </mxCell>
        <mxCell id="M8VhZg36b8eC-4sq4X0w-16" value="subdc-test" style="text;html=1;align=center;verticalAlign=middle;whiteSpace=wrap;rounded=0;fontStyle=1" parent="M8VhZg36b8eC-4sq4X0w-1" vertex="1">
          <mxGeometry x="535.48" y="106.25" width="66.73" height="16.5" as="geometry" />
        </mxCell>
        <mxCell id="M8VhZg36b8eC-4sq4X0w-17" value="subdc-listing-images" style="text;html=1;align=center;verticalAlign=middle;whiteSpace=wrap;rounded=0;fontStyle=1" parent="M8VhZg36b8eC-4sq4X0w-1" vertex="1">
          <mxGeometry x="396.92999999999995" y="148.5" width="131.15" height="21.5" as="geometry" />
        </mxCell>
        <mxCell id="M8VhZg36b8eC-4sq4X0w-18" value="" style="sketch=0;outlineConnect=0;fontColor=#232F3E;gradientColor=none;fillColor=#7AA116;strokeColor=none;dashed=0;verticalLabelPosition=bottom;verticalAlign=top;align=center;html=1;fontSize=12;fontStyle=0;aspect=fixed;pointerEvents=1;shape=mxgraph.aws4.bucket_with_objects;" parent="M8VhZg36b8eC-4sq4X0w-1" vertex="1">
          <mxGeometry x="540" y="45" width="57.69" height="60" as="geometry" />
        </mxCell>
        <mxCell id="M8VhZg36b8eC-4sq4X0w-19" value="" style="sketch=0;points=[[0,0,0],[0.25,0,0],[0.5,0,0],[0.75,0,0],[1,0,0],[0,1,0],[0.25,1,0],[0.5,1,0],[0.75,1,0],[1,1,0],[0,0.25,0],[0,0.5,0],[0,0.75,0],[1,0.25,0],[1,0.5,0],[1,0.75,0]];points=[[0,0,0],[0.25,0,0],[0.5,0,0],[0.75,0,0],[1,0,0],[0,1,0],[0.25,1,0],[0.5,1,0],[0.75,1,0],[1,1,0],[0,0.25,0],[0,0.5,0],[0,0.75,0],[1,0.25,0],[1,0.5,0],[1,0.75,0]];outlineConnect=0;fontColor=#232F3E;fillColor=#E7157B;strokeColor=#ffffff;dashed=0;verticalLabelPosition=bottom;verticalAlign=top;align=center;html=1;fontSize=12;fontStyle=0;aspect=fixed;shape=mxgraph.aws4.resourceIcon;resIcon=mxgraph.aws4.cloudformation;" parent="M8VhZg36b8eC-4sq4X0w-1" vertex="1">
          <mxGeometry x="30" y="39.38" width="65" height="65" as="geometry" />
        </mxCell>
        <mxCell id="M8VhZg36b8eC-4sq4X0w-21" value="" style="sketch=0;points=[[0,0,0],[0.25,0,0],[0.5,0,0],[0.75,0,0],[1,0,0],[0,1,0],[0.25,1,0],[0.5,1,0],[0.75,1,0],[1,1,0],[0,0.25,0],[0,0.5,0],[0,0.75,0],[1,0.25,0],[1,0.5,0],[1,0.75,0]];outlineConnect=0;fontColor=#232F3E;fillColor=#7AA116;strokeColor=#ffffff;dashed=0;verticalLabelPosition=bottom;verticalAlign=top;align=center;html=1;fontSize=12;fontStyle=0;aspect=fixed;shape=mxgraph.aws4.resourceIcon;resIcon=mxgraph.aws4.s3;" parent="M8VhZg36b8eC-4sq4X0w-1" vertex="1">
          <mxGeometry x="430" y="299" width="65" height="65" as="geometry" />
        </mxCell>
        <mxCell id="M8VhZg36b8eC-4sq4X0w-79" style="edgeStyle=orthogonalEdgeStyle;rounded=0;orthogonalLoop=1;jettySize=auto;html=1;endArrow=block;elbow=vertical;startArrow=none;endFill=1;strokeColor=#545B64;" parent="M8VhZg36b8eC-4sq4X0w-1" source="M8VhZg36b8eC-4sq4X0w-27" target="M8VhZg36b8eC-4sq4X0w-18" edge="1">
          <mxGeometry relative="1" as="geometry" />
        </mxCell>
        <mxCell id="M8VhZg36b8eC-4sq4X0w-27" value="" style="sketch=0;points=[[0,0,0],[0.25,0,0],[0.5,0,0],[0.75,0,0],[1,0,0],[0,1,0],[0.25,1,0],[0.5,1,0],[0.75,1,0],[1,1,0],[0,0.25,0],[0,0.5,0],[0,0.75,0],[1,0.25,0],[1,0.5,0],[1,0.75,0]];outlineConnect=0;fontColor=#232F3E;fillColor=#C925D1;strokeColor=#ffffff;dashed=0;verticalLabelPosition=bottom;verticalAlign=top;align=center;html=1;fontSize=12;fontStyle=0;aspect=fixed;shape=mxgraph.aws4.resourceIcon;resIcon=mxgraph.aws4.codebuild;" parent="M8VhZg36b8eC-4sq4X0w-1" vertex="1">
          <mxGeometry x="331.93" y="39.38" width="65" height="65" as="geometry" />
        </mxCell>
        <mxCell id="M8VhZg36b8eC-4sq4X0w-28" value="CloudFormation" style="text;html=1;align=center;verticalAlign=middle;whiteSpace=wrap;rounded=0;fontStyle=1" parent="M8VhZg36b8eC-4sq4X0w-1" vertex="1">
          <mxGeometry x="12.5" y="105.63" width="100" height="16.5" as="geometry" />
        </mxCell>
        <mxCell id="M8VhZg36b8eC-4sq4X0w-80" style="edgeStyle=orthogonalEdgeStyle;rounded=0;orthogonalLoop=1;jettySize=auto;html=1;exitX=0.5;exitY=1;exitDx=0;exitDy=0;entryX=0.5;entryY=0;entryDx=0;entryDy=0;endArrow=block;elbow=vertical;startArrow=none;endFill=1;strokeColor=#545B64;" parent="M8VhZg36b8eC-4sq4X0w-1" source="M8VhZg36b8eC-4sq4X0w-30" edge="1">
          <mxGeometry relative="1" as="geometry">
            <Array as="points">
              <mxPoint x="364" y="290" />
              <mxPoint x="131" y="290" />
            </Array>
            <mxPoint x="130.5" y="302" as="targetPoint" />
          </mxGeometry>
        </mxCell>
        <mxCell id="M8VhZg36b8eC-4sq4X0w-30" value="CodeBuild" style="text;html=1;align=center;verticalAlign=middle;whiteSpace=wrap;rounded=0;fontStyle=1" parent="M8VhZg36b8eC-4sq4X0w-1" vertex="1">
          <mxGeometry x="334.43" y="105" width="60" height="17.75" as="geometry" />
        </mxCell>
        <mxCell id="M8VhZg36b8eC-4sq4X0w-31" value="Secrets Manager" style="text;html=1;align=center;verticalAlign=middle;whiteSpace=wrap;rounded=0;fontStyle=1" parent="M8VhZg36b8eC-4sq4X0w-1" vertex="1">
          <mxGeometry x="120" y="104.38" width="100" height="17.75" as="geometry" />
        </mxCell>
        <mxCell id="M8VhZg36b8eC-4sq4X0w-32" value="" style="sketch=0;points=[[0,0,0],[0.25,0,0],[0.5,0,0],[0.75,0,0],[1,0,0],[0,1,0],[0.25,1,0],[0.5,1,0],[0.75,1,0],[1,1,0],[0,0.25,0],[0,0.5,0],[0,0.75,0],[1,0.25,0],[1,0.5,0],[1,0.75,0]];outlineConnect=0;fontColor=#232F3E;fillColor=#DD344C;strokeColor=#ffffff;dashed=0;verticalLabelPosition=bottom;verticalAlign=top;align=center;html=1;fontSize=12;fontStyle=0;aspect=fixed;shape=mxgraph.aws4.resourceIcon;resIcon=mxgraph.aws4.secrets_manager;" parent="M8VhZg36b8eC-4sq4X0w-1" vertex="1">
          <mxGeometry x="137.5" y="39.38" width="65" height="65" as="geometry" />
        </mxCell>
        <mxCell id="M8VhZg36b8eC-4sq4X0w-77" style="edgeStyle=orthogonalEdgeStyle;rounded=0;orthogonalLoop=1;jettySize=auto;html=1;entryX=0;entryY=0.5;entryDx=0;entryDy=0;entryPerimeter=0;endArrow=block;elbow=vertical;startArrow=block;startFill=1;endFill=1;strokeColor=#545B64;" parent="M8VhZg36b8eC-4sq4X0w-1" source="M8VhZg36b8eC-4sq4X0w-12" target="M8VhZg36b8eC-4sq4X0w-21" edge="1">
          <mxGeometry relative="1" as="geometry" />
        </mxCell>
        <mxCell id="M8VhZg36b8eC-4sq4X0w-81" style="edgeStyle=orthogonalEdgeStyle;rounded=0;orthogonalLoop=1;jettySize=auto;html=1;entryX=0.5;entryY=0;entryDx=0;entryDy=0;entryPerimeter=0;endArrow=block;elbow=vertical;startArrow=block;startFill=1;endFill=1;strokeColor=#545B64;" parent="M8VhZg36b8eC-4sq4X0w-1" source="M8VhZg36b8eC-4sq4X0w-16" target="M8VhZg36b8eC-4sq4X0w-21" edge="1">
          <mxGeometry relative="1" as="geometry">
            <Array as="points">
              <mxPoint x="569" y="299" />
            </Array>
          </mxGeometry>
        </mxCell>
        <mxCell id="M8VhZg36b8eC-4sq4X0w-82" style="edgeStyle=orthogonalEdgeStyle;rounded=0;orthogonalLoop=1;jettySize=auto;html=1;entryX=0.5;entryY=0;entryDx=0;entryDy=0;entryPerimeter=0;endArrow=block;elbow=vertical;startArrow=block;endFill=1;strokeColor=#545B64;startFill=1;" parent="M8VhZg36b8eC-4sq4X0w-1" source="M8VhZg36b8eC-4sq4X0w-15" target="M8VhZg36b8eC-4sq4X0w-21" edge="1">
          <mxGeometry relative="1" as="geometry" />
        </mxCell>
        <mxCell id="zqciDCgVZ483d6t_hfOH-4" value="" style="sketch=0;points=[[0,0,0],[0.25,0,0],[0.5,0,0],[0.75,0,0],[1,0,0],[0,1,0],[0.25,1,0],[0.5,1,0],[0.75,1,0],[1,1,0],[0,0.25,0],[0,0.5,0],[0,0.75,0],[1,0.25,0],[1,0.5,0],[1,0.75,0]];outlineConnect=0;fontColor=#232F3E;fillColor=#ED7100;strokeColor=#ffffff;dashed=0;verticalLabelPosition=bottom;verticalAlign=top;align=center;html=1;fontSize=12;fontStyle=0;aspect=fixed;shape=mxgraph.aws4.resourceIcon;resIcon=mxgraph.aws4.ecr;" parent="M8VhZg36b8eC-4sq4X0w-1" vertex="1">
          <mxGeometry x="227.5" y="39.379999999999995" width="65" height="65" as="geometry" />
        </mxCell>
        <mxCell id="zqciDCgVZ483d6t_hfOH-5" value="&lt;b&gt;ECR&lt;/b&gt;" style="text;html=1;align=center;verticalAlign=middle;resizable=0;points=[];autosize=1;strokeColor=none;fillColor=none;" parent="M8VhZg36b8eC-4sq4X0w-1" vertex="1">
          <mxGeometry x="242.5" y="104.38" width="50" height="30" as="geometry" />
        </mxCell>
        <mxCell id="zqciDCgVZ483d6t_hfOH-6" value="" style="edgeStyle=orthogonalEdgeStyle;html=1;endArrow=block;elbow=vertical;startArrow=block;startFill=1;endFill=1;strokeColor=#545B64;rounded=0;exitX=1;exitY=0.5;exitDx=0;exitDy=0;exitPerimeter=0;" parent="M8VhZg36b8eC-4sq4X0w-1" source="zqciDCgVZ483d6t_hfOH-4" target="M8VhZg36b8eC-4sq4X0w-27" edge="1">
          <mxGeometry width="100" relative="1" as="geometry">
            <mxPoint x="270" y="141.5" as="sourcePoint" />
            <mxPoint x="370" y="141.5" as="targetPoint" />
          </mxGeometry>
        </mxCell>
        <mxCell id="M8VhZg36b8eC-4sq4X0w-45" value="" style="dashed=0;outlineConnect=0;html=1;align=center;labelPosition=center;verticalLabelPosition=bottom;verticalAlign=top;shape=mxgraph.weblogos.github" parent="1" vertex="1">
          <mxGeometry x="277.5" y="710" width="65" height="65" as="geometry" />
        </mxCell>
        <mxCell id="M8VhZg36b8eC-4sq4X0w-68" style="edgeStyle=orthogonalEdgeStyle;rounded=0;orthogonalLoop=1;jettySize=auto;html=1;endArrow=block;elbow=vertical;startArrow=none;endFill=1;strokeColor=#545B64;" parent="1" source="M8VhZg36b8eC-4sq4X0w-49" target="M8VhZg36b8eC-4sq4X0w-66" edge="1">
          <mxGeometry relative="1" as="geometry" />
        </mxCell>
        <mxCell id="M8VhZg36b8eC-4sq4X0w-49" value="" style="sketch=0;outlineConnect=0;fontColor=#232F3E;gradientColor=none;fillColor=#232F3D;strokeColor=none;dashed=0;verticalLabelPosition=bottom;verticalAlign=top;align=center;html=1;fontSize=12;fontStyle=0;aspect=fixed;pointerEvents=1;shape=mxgraph.aws4.user;" parent="1" vertex="1">
          <mxGeometry x="918.5" y="583.5" width="78" height="78" as="geometry" />
        </mxCell>
        <mxCell id="M8VhZg36b8eC-4sq4X0w-50" value="" style="sketch=0;outlineConnect=0;fontColor=#232F3E;gradientColor=none;fillColor=#232F3D;strokeColor=none;dashed=0;verticalLabelPosition=bottom;verticalAlign=top;align=center;html=1;fontSize=12;fontStyle=0;aspect=fixed;pointerEvents=1;shape=mxgraph.aws4.users;" parent="1" vertex="1">
          <mxGeometry x="918" y="211" width="78" height="78" as="geometry" />
        </mxCell>
        <UserObject label="&lt;b&gt;Users&lt;/b&gt;" id="M8VhZg36b8eC-4sq4X0w-52">
          <mxCell style="text;whiteSpace=wrap;html=1;" parent="1" vertex="1">
            <mxGeometry x="937.5" y="289" width="40" height="20" as="geometry" />
          </mxCell>
        </UserObject>
        <UserObject label="&lt;b&gt;Developer&lt;/b&gt;" id="M8VhZg36b8eC-4sq4X0w-53">
          <mxCell style="text;whiteSpace=wrap;html=1;" parent="1" vertex="1">
            <mxGeometry x="927.5" y="670" width="60" height="20" as="geometry" />
          </mxCell>
        </UserObject>
        <mxCell id="M8VhZg36b8eC-4sq4X0w-85" style="edgeStyle=orthogonalEdgeStyle;rounded=0;orthogonalLoop=1;jettySize=auto;html=1;entryX=0.5;entryY=0;entryDx=0;entryDy=0;endArrow=block;elbow=vertical;startArrow=block;startFill=1;endFill=1;strokeColor=#545B64;" parent="1" source="M8VhZg36b8eC-4sq4X0w-55" target="M8VhZg36b8eC-4sq4X0w-84" edge="1">
          <mxGeometry relative="1" as="geometry" />
        </mxCell>
        <mxCell id="M8VhZg36b8eC-4sq4X0w-55" value="" style="sketch=0;outlineConnect=0;fontColor=#232F3E;gradientColor=none;fillColor=#232F3D;strokeColor=none;dashed=0;verticalLabelPosition=bottom;verticalAlign=top;align=center;html=1;fontSize=12;fontStyle=0;aspect=fixed;pointerEvents=1;shape=mxgraph.aws4.user;" parent="1" vertex="1">
          <mxGeometry x="710" y="938.5" width="78" height="78" as="geometry" />
        </mxCell>
        <UserObject label="&lt;b&gt;Tester&lt;/b&gt;" id="M8VhZg36b8eC-4sq4X0w-56">
          <mxCell style="text;whiteSpace=wrap;html=1;" parent="1" vertex="1">
            <mxGeometry x="729" y="908.5" width="40" height="30" as="geometry" />
          </mxCell>
        </UserObject>
        <mxCell id="M8VhZg36b8eC-4sq4X0w-61" value="GitHub Webhook" style="text;html=1;align=center;verticalAlign=middle;whiteSpace=wrap;rounded=0;fontStyle=1" parent="1" vertex="1">
          <mxGeometry x="258.47" y="690" width="103.07" height="20" as="geometry" />
        </mxCell>
        <mxCell id="M8VhZg36b8eC-4sq4X0w-73" style="edgeStyle=orthogonalEdgeStyle;rounded=0;orthogonalLoop=1;jettySize=auto;html=1;entryX=0.5;entryY=1;entryDx=0;entryDy=0;endArrow=block;elbow=vertical;startArrow=none;endFill=1;strokeColor=#545B64;" parent="1" source="M8VhZg36b8eC-4sq4X0w-66" target="7wSFpp9sJQzXC4tISoXY-32" edge="1">
          <mxGeometry relative="1" as="geometry" />
        </mxCell>
        <mxCell id="M8VhZg36b8eC-4sq4X0w-66" value="" style="dashed=0;outlineConnect=0;html=1;align=center;labelPosition=center;verticalLabelPosition=bottom;verticalAlign=top;shape=mxgraph.weblogos.github" parent="1" vertex="1">
          <mxGeometry x="695" y="590" width="65" height="65" as="geometry" />
        </mxCell>
        <mxCell id="M8VhZg36b8eC-4sq4X0w-93" style="edgeStyle=orthogonalEdgeStyle;rounded=0;orthogonalLoop=1;jettySize=auto;html=1;endArrow=block;elbow=vertical;startArrow=none;endFill=1;strokeColor=#545B64;" parent="1" source="M8VhZg36b8eC-4sq4X0w-67" target="M8VhZg36b8eC-4sq4X0w-45" edge="1">
          <mxGeometry relative="1" as="geometry">
            <Array as="points">
              <mxPoint x="728" y="743" />
            </Array>
          </mxGeometry>
        </mxCell>
        <mxCell id="M8VhZg36b8eC-4sq4X0w-67" value="https://github.com.cdirubbio/SubDC" style="text;html=1;align=center;verticalAlign=middle;whiteSpace=wrap;rounded=0;fontStyle=1" parent="1" vertex="1">
          <mxGeometry x="622.5" y="663" width="210" height="20" as="geometry" />
        </mxCell>
        <mxCell id="M8VhZg36b8eC-4sq4X0w-71" style="edgeStyle=orthogonalEdgeStyle;rounded=0;orthogonalLoop=1;jettySize=auto;html=1;entryX=0.5;entryY=0;entryDx=0;entryDy=0;entryPerimeter=0;endArrow=block;elbow=vertical;startArrow=none;endFill=1;strokeColor=#545B64;" parent="1" source="M8VhZg36b8eC-4sq4X0w-45" target="M8VhZg36b8eC-4sq4X0w-27" edge="1">
          <mxGeometry relative="1" as="geometry" />
        </mxCell>
        <mxCell id="M8VhZg36b8eC-4sq4X0w-74" value="Push to refs/head/main" style="text;html=1;align=center;verticalAlign=middle;whiteSpace=wrap;rounded=0;fontStyle=1" parent="1" vertex="1">
          <mxGeometry x="526" y="600" width="140" height="20" as="geometry" />
        </mxCell>
        <UserObject label="&lt;b&gt;http://subdc-test.s3-website-us-east-1.amazonaws.com&lt;/b&gt;" id="M8VhZg36b8eC-4sq4X0w-84">
          <mxCell style="text;whiteSpace=wrap;html=1;" parent="1" vertex="1">
            <mxGeometry x="664" y="1129.5" width="170" height="41" as="geometry" />
          </mxCell>
        </UserObject>
        <mxCell id="M8VhZg36b8eC-4sq4X0w-86" style="edgeStyle=orthogonalEdgeStyle;rounded=0;orthogonalLoop=1;jettySize=auto;html=1;entryX=1;entryY=0.5;entryDx=0;entryDy=0;entryPerimeter=0;endArrow=block;elbow=vertical;startArrow=block;startFill=1;endFill=1;strokeColor=#545B64;" parent="1" source="M8VhZg36b8eC-4sq4X0w-84" target="M8VhZg36b8eC-4sq4X0w-21" edge="1">
          <mxGeometry relative="1" as="geometry" />
        </mxCell>
        <mxCell id="M8VhZg36b8eC-4sq4X0w-88" value="Push to refs/head/test" style="text;html=1;align=center;verticalAlign=middle;whiteSpace=wrap;rounded=0;fontStyle=1" parent="1" vertex="1">
          <mxGeometry x="388.5" y="720" width="137.5" height="20" as="geometry" />
        </mxCell>
      </root>
    </mxGraphModel>
  </diagram>
</mxfile>
